<svg width="380" height="330" viewBox="0 0 380 330" fill="none" xmlns="http://www.w3.org/2000/svg">
<path d="M215.25 0.874849C166.553 0.881768 120.359 22.5536 89.1973 59.9679C88.0987 61.2371 87.2642 62.7132 86.7426 64.3088C86.221 65.9044 86.0229 67.5875 86.1597 69.2606C86.2965 70.9337 86.7656 72.5625 87.5395 74.0522C88.3134 75.5418 89.3766 76.8627 90.6669 77.9366C91.9572 79.0104 93.4486 79.816 95.054 80.3065C96.6594 80.7971 98.3465 80.9628 100.017 80.7936C101.687 80.6244 103.306 80.124 104.781 79.3214C106.255 78.5188 107.555 77.4301 108.603 76.1193C134.982 44.4472 174.038 26.1305 215.25 26.1245C292.096 26.1135 354.125 88.152 354.125 165C354.125 241.848 292.092 303.908 215.25 303.874C174.061 303.857 135.032 285.496 108.677 253.818C107.629 252.508 106.329 251.42 104.855 250.617C103.38 249.814 101.761 249.313 100.091 249.144C98.4205 248.975 96.7334 249.141 95.128 249.631C93.5226 250.122 92.0312 250.927 90.7409 252.001C89.4506 253.075 88.3874 254.396 87.6135 255.886C86.8396 257.375 86.3705 259.004 86.2337 260.677C86.0969 262.35 86.295 264.034 86.8166 265.63C87.3382 267.225 88.1727 268.701 89.2713 269.97C120.4 307.385 166.561 329.104 215.25 329.125C305.751 329.173 379.375 255.494 379.375 165C379.375 74.506 305.746 0.861727 215.25 0.874849Z" fill="black"/>
<path d="M13.2562 152.369C11.5979 152.369 9.9558 152.696 8.42369 153.33C6.89158 153.965 5.49947 154.895 4.32685 156.068C3.15422 157.241 2.22405 158.633 1.58943 160.165C0.954809 161.697 0.628174 163.339 0.628174 164.997C0.628174 166.656 0.954809 168.298 1.58943 169.83C2.22405 171.362 3.15422 172.754 4.32685 173.927C5.49947 175.099 6.89158 176.03 8.42369 176.664C9.9558 177.299 11.5979 177.625 13.2562 177.625H114.234C115.893 177.625 117.535 177.299 119.067 176.664C120.599 176.03 121.991 175.099 123.164 173.927C124.337 172.754 125.267 171.362 125.901 169.83C126.536 168.298 126.863 166.656 126.863 164.997C126.863 163.339 126.536 161.697 125.901 160.165C125.267 158.633 124.337 157.241 123.164 156.068C121.991 154.895 120.599 153.965 119.067 153.33C117.535 152.696 115.893 152.369 114.234 152.369H13.2562Z" fill="black"/>
<path d="M51.1405 101.857C49.4822 101.857 47.8401 102.183 46.308 102.818C44.7759 103.452 43.3838 104.383 42.2111 105.555C41.0385 106.728 40.1083 108.12 39.4737 109.652C38.8391 111.185 38.5125 112.827 38.5125 114.485C38.5125 116.143 38.8391 117.785 39.4737 119.317C40.1083 120.849 41.0385 122.242 42.2111 123.414C43.3838 124.587 44.7759 125.517 46.308 126.152C47.8401 126.786 49.4822 127.113 51.1405 127.113H114.234C115.893 127.113 117.535 126.786 119.067 126.152C120.599 125.517 121.991 124.587 123.164 123.414C124.336 122.242 125.267 120.849 125.901 119.317C126.536 117.785 126.863 116.143 126.863 114.485C126.863 112.827 126.536 111.185 125.901 109.652C125.267 108.12 124.336 106.728 123.164 105.555C121.991 104.383 120.599 103.452 119.067 102.818C117.535 102.183 115.893 101.857 114.234 101.857H51.1405Z" fill="black"/>
<path d="M51.1405 202.882C47.7913 202.882 44.5793 204.212 42.211 206.58C39.8428 208.949 38.5123 212.16 38.5123 215.51C38.5123 218.859 39.8428 222.071 42.211 224.439C44.5793 226.807 47.7913 228.138 51.1405 228.138H114.234C117.584 228.138 120.796 226.807 123.164 224.439C125.532 222.071 126.863 218.859 126.863 215.51C126.863 212.16 125.532 208.949 123.164 206.58C120.796 204.212 117.584 202.882 114.234 202.882H51.1405Z" fill="black"/>
<path d="M215.073 63.8326C213.414 63.8567 211.777 64.2072 210.254 64.8643C208.731 65.5214 207.353 66.4724 206.197 67.6624C205.042 68.8524 204.132 70.2585 203.52 71.8002C202.908 73.3418 202.606 74.9886 202.631 76.6471V164.997C202.627 166.657 202.949 168.302 203.581 169.837C204.213 171.372 205.141 172.768 206.312 173.944L256.825 224.41C257.983 225.644 259.376 226.632 260.924 227.317C262.471 228.002 264.14 228.369 265.832 228.396C267.524 228.423 269.204 228.109 270.772 227.474C272.34 226.839 273.765 225.896 274.961 224.7C276.158 223.503 277.102 222.079 277.737 220.51C278.372 218.942 278.685 217.262 278.658 215.57C278.631 213.878 278.264 212.209 277.579 210.661C276.895 209.114 275.906 207.72 274.672 206.563L227.887 159.778V76.6471C227.913 74.9573 227.599 73.2797 226.964 71.7135C226.329 70.1473 225.386 68.7242 224.191 67.5291C222.996 66.3341 221.573 65.3916 220.007 64.7566C218.44 64.1216 216.763 63.8072 215.073 63.8326Z" fill="black"/>
</svg>
